<svg xmlns="http://www.w3.org/2000/svg" width="63" height="7" viewBox="0 0 63 7">
  <defs>
    <style>
      .cls-1, .cls-2 {
        fill: none;
        stroke-width: 2px;
      }

      .cls-1 {
        stroke: #000;
      }

      .cls-2 {
        stroke: #6e787d;
      }

      .cls-2, .cls-3, .cls-4 {
        opacity: 0.468;
      }

      .cls-3, .cls-4, .cls-6 {
        fill: #6e787d;
      }

      .cls-5, .cls-6 {
        stroke: none;
      }
    </style>
  </defs>
  <g id="Group_853" data-name="Group 853" transform="translate(218 7076)">
    <circle id="Ellipse_28" data-name="Ellipse 28" cx="3.5" cy="3.5" r="3.5" transform="translate(-218 -7076)"/>
    <path id="Path_205" data-name="Path 205" class="cls-1" d="M0,0V15" transform="translate(-194.054 -7072.5) rotate(90)"/>
    <path id="Polygon_4" data-name="Polygon 4" d="M2.5,0,5,5H0Z" transform="translate(-192 -7075) rotate(90)"/>
    <circle id="Ellipse_29" data-name="Ellipse 29" cx="3.5" cy="3.5" r="3.5" transform="translate(-190 -7076)"/>
    <path id="Path_212" data-name="Path 212" class="cls-2" d="M0,0V15" transform="translate(-166.054 -7072.5) rotate(90)"/>
    <g id="Polygon_5" data-name="Polygon 5" class="cls-3" transform="translate(-164 -7075) rotate(90)">
      <path class="cls-5" d="M 4.190985202789307 4.5 L 0.8090149760246277 4.5 L 2.5 1.118029952049255 L 4.190985202789307 4.5 Z"/>
      <path class="cls-6" d="M 2.5 2.236069917678833 L 1.618035078048706 4 L 3.381965160369873 4 L 2.5 2.236069917678833 M 2.5 0 L 5 5 L 0 5 L 2.5 0 Z"/>
    </g>
    <circle id="Ellipse_30" data-name="Ellipse 30" class="cls-4" cx="3.5" cy="3.5" r="3.5" transform="translate(-162 -7076)"/>
  </g>
</svg>
