<svg id="Layer_1" data-name="Layer 1" xmlns="http://www.w3.org/2000/svg" viewBox="0 0 34 34"><defs><style>.cls-1{fill:#fff;}</style></defs><path class="cls-1" d="M31,7.72h0l-1.59,0c-7.42-.17-9.7-1.57-12.09-3C14.7,3.06,12,1.42,3.05,1.42v1c8.7,0,11.12,1.49,13.68,3.07.24.15.48.3.73.44l-.11,0C14.76,5,12.08,4,3.05,4V6.06c8,0,10.68.75,13.05,1.6a116.51,116.51,0,0,0-13-.47v4a102.82,102.82,0,0,1,13.72.57l.94.1-1.49.38c-2.42.65-4.72,1.27-13.17,1.27v6a72.36,72.36,0,0,0,10.7-.59c-1.87.92-3.94,1.66-10.7,1.66v12c9.52,0,13-1.39,16.65-3.21,2.05-1,3.83-1.93,11.25-1.93Z"/></svg>