<svg xmlns="http://www.w3.org/2000/svg" width="68" height="68" viewBox="0 0 68 68">
  <defs>
    <style>
      .cls-1 {
        fill: #d88a0f;
      }

      .cls-2, .cls-3 {
        fill: none;
        stroke: #fff;
      }

      .cls-2 {
        stroke-width: 2px;
      }
    </style>
  </defs>
  <g id="Group_973" data-name="Group 973" transform="translate(-844 -368)">
    <g id="Group_1089" data-name="Group 1089">
      <circle id="Ellipse_84" data-name="Ellipse 84" class="cls-1" cx="34" cy="34" r="34" transform="translate(844 368)"/>
      <g id="Component_9_255" data-name="Component 9 – 255" transform="translate(854.625 387.125)">
        <path id="Path_25" data-name="Path 25" class="cls-2" d="M1858.763,1093.162s-2.562-4.011,0-5.832,4.381-2.216,5.427-6.5.915-5.507,1.929-5.754a7.687,7.687,0,0,0,3.875-3.3c.609-1.413,2.862-3.961,4.526-3.961s7.1-1.913,8.242-1.578,4.184-.388,6.641,1.578,1.968,2.321,4.831,2.79,7.361,9.3,8.638,10.222-.537,4.084,1.107,6.5-2.916.673,0,4.192-1.107,4.425-1.107,4.425h-15.721s.715-7.58,0-8.617,3.125-2.01-1.529-3.189-3.7-2.552-5.563-1.639a34.8,34.8,0,0,0-6.791,4.827c-.638.859-4.568,1.567-3.273,2.591s0,4.326,0,4.326v1.7h-11.232Z" transform="translate(-1857.624 -1066.199)"/>
        <path id="Path_26" data-name="Path 26" class="cls-3" d="M1926.786,1072.176s2.611,1.614,0,2.358a34.1,34.1,0,0,0-5.421,2.206v2.287l9.184,4.7,3.584,1.563,1.288,4.643" transform="translate(-1894.431 -1069.656)"/>
        <path id="Path_27" data-name="Path 27" class="cls-3" d="M1927.989,1072.176s-2,1.614,0,2.358a23.3,23.3,0,0,1,4.157,2.206v2.287l-7.043,4.7-2.749,1.563-.988,4.643" transform="translate(-1912.913 -1069.656)"/>
      </g>
    </g>
  </g>
</svg>
