<?xml version="1.0" standalone="no"?>
<!DOCTYPE svg PUBLIC "-//W3C//DTD SVG 20010904//EN"
 "http://www.w3.org/TR/2001/REC-SVG-20010904/DTD/svg10.dtd">
<svg version="1.0" xmlns="http://www.w3.org/2000/svg"
 width="520.000000pt" height="520.000000pt" viewBox="0 0 520.000000 520.000000"
 preserveAspectRatio="xMidYMid meet">
<metadata>
Created by potrace 1.11, written by Peter Selinger 2001-2013
</metadata>
<g transform="translate(0.000000,520.000000) scale(0.100000,-0.100000)"
fill="#000000" stroke="none">
<path d="M2399 5196 c-2 -2 -35 -6 -74 -10 -194 -15 -525 -97 -682 -167 -24
-10 -46 -19 -49 -19 -18 0 -265 -127 -359 -186 -107 -66 -291 -202 -369 -273
-162 -149 -324 -337 -431 -501 -109 -166 -159 -259 -221 -402 -41 -96 -119
-317 -128 -364 -3 -12 -9 -38 -14 -58 -6 -20 -8 -36 -6 -36 3 0 1 -8 -5 -17
-5 -10 -12 -40 -15 -66 -4 -26 -11 -71 -17 -100 -5 -29 -13 -83 -17 -122 -9
-91 -9 -494 1 -565 15 -106 28 -186 44 -254 8 -37 16 -73 17 -80 17 -79 82
-276 124 -376 299 -709 875 -1238 1612 -1479 52 -17 104 -33 115 -35 11 -2 39
-9 63 -16 24 -6 55 -13 70 -15 15 -2 65 -11 112 -19 133 -25 221 -31 430 -31
179 0 299 6 375 20 17 3 67 12 113 21 891 162 1658 818 1962 1679 27 77 61
186 62 202 0 5 4 19 9 31 13 33 56 272 66 362 4 41 8 167 8 280 0 254 -8 337
-51 540 -25 118 -77 301 -100 355 -7 17 -27 66 -44 109 -52 129 -145 302 -237
439 -47 71 -91 134 -97 140 -6 7 -29 35 -51 62 -101 127 -226 250 -408 403
-46 38 -207 147 -289 195 -193 114 -459 225 -653 273 -83 20 -156 36 -230 48
-49 8 -106 18 -125 21 -37 7 -505 17 -511 11z"/>
</g>
</svg>
