<svg xmlns="http://www.w3.org/2000/svg" width="68" height="68" viewBox="0 0 68 68">
  <defs>
    <style>
      .cls-1, .cls-3 {
        fill: #009105;
      }

      .cls-2 {
        fill: none;
        stroke: #fff;
        stroke-width: 2px;
      }

      .cls-4, .cls-5 {
        stroke: none;
      }

      .cls-5 {
        fill: #fff;
      }
    </style>
  </defs>
  <g id="Group_1086" data-name="Group 1086" transform="translate(-120 -1041)">
    <g id="Group_1090" data-name="Group 1090">
      <circle id="Ellipse_84" data-name="Ellipse 84" class="cls-1" cx="34" cy="34" r="34" transform="translate(120 1041)"/>
      <g id="Group_969" data-name="Group 969" transform="translate(135.045 1048)">
        <line id="Line_5" data-name="Line 5" class="cls-2" y1="16.05" transform="translate(26.345 29.856)"/>
        <g id="Polygon_3" data-name="Polygon 3" class="cls-3" transform="translate(13.956 14.175)">
          <path class="cls-4" d="M 22.91555595397949 22.43572235107422 L 1.653229117393494 22.43572235107422 L 12.28439235687256 2.153969764709473 L 22.91555595397949 22.43572235107422 Z"/>
          <path class="cls-5" d="M 12.28439235687256 4.30793571472168 L 3.306455612182617 21.43572235107422 L 21.2623291015625 21.43572235107422 L 12.28439235687256 4.30793571472168 M 12.28439235687256 3.814697265625e-06 L 24.56878280639648 23.43572235107422 L 1.9073486328125e-06 23.43572235107422 L 12.28439235687256 3.814697265625e-06 Z"/>
        </g>
        <g id="Union_1" data-name="Union 1" class="cls-3">
          <path class="cls-4" d="M 11.54486656188965 34.66744232177734 C 5.730406761169434 34.66744232177734 0.9999966621398926 29.91587066650391 0.9999966621398926 24.07540130615234 C 0.9999966621398926 20.81697082519531 2.46109676361084 17.78721046447754 5.00865650177002 15.76300144195557 L 5.794206619262695 15.13882160186768 L 5.167416572570801 14.35535144805908 C 3.990166664123535 12.88383102416992 3.36790657043457 11.1059513092041 3.36790657043457 9.213921546936035 C 3.36790657043457 4.684751033782959 7.036076545715332 1.000001192092896 11.54486656188965 1.000001192092896 C 16.0533561706543 1.000001192092896 19.72128677368164 4.684751033782959 19.72128677368164 9.213921546936035 C 19.72128677368164 11.10593128204346 19.09904670715332 12.88380146026611 17.92182731628418 14.3553409576416 L 17.29506683349609 15.13879108428955 L 18.08058738708496 15.76296138763428 C 20.62811660766602 17.78722190856934 22.08919715881348 20.81699180603027 22.08919715881348 24.07540130615234 C 22.08919715881348 29.91587066650391 17.3590259552002 34.66744232177734 11.54486656188965 34.66744232177734 Z"/>
          <path class="cls-5" d="M 11.54486656188965 33.66744232177734 C 16.80762672424316 33.66744232177734 21.08919715881348 29.36447143554688 21.08919715881348 24.07540130615234 C 21.08919715881348 21.12373161315918 19.76584625244141 18.37933158874512 17.45846748352051 16.5458812713623 L 15.88744640350342 15.29755115509033 L 17.14095687866211 13.73065090179443 C 18.1748161315918 12.43830108642578 18.72128677368164 10.87645149230957 18.72128677368164 9.213921546936035 C 18.72128677368164 5.236151218414307 15.50195693969727 2.000001192092896 11.54486656188965 2.000001192092896 C 7.58747673034668 2.000001192092896 4.36790657043457 5.236151218414307 4.36790657043457 9.213921546936035 C 4.36790657043457 10.87647151947021 4.914386749267578 12.43833160400391 5.948276519775391 13.73065090179443 L 7.20185661315918 15.29758071899414 L 5.630756855010986 16.54594039916992 C 3.323356628417969 18.37933158874512 1.999996662139893 21.12371063232422 1.999996662139893 24.07540130615234 C 1.999996662139893 29.36447143554688 6.281806468963623 33.66744232177734 11.54486656188965 33.66744232177734 M 11.54486656188965 35.66744232177734 C 5.168466567993164 35.66744232177734 -3.327941840325366e-06 30.47732162475586 -3.327941840325366e-06 24.07540130615234 C -3.327941840325366e-06 20.38836097717285 1.714456677436829 17.10323143005371 4.386556625366211 14.98006153106689 C 3.123736619949341 13.40158081054688 2.36790657043457 11.39626121520996 2.36790657043457 9.213921546936035 C 2.36790657043457 4.12545108795166 6.476566791534424 1.160888700724172e-06 11.54486656188965 1.160888700724172e-06 C 16.61262702941895 1.160888700724172e-06 20.72128677368164 4.12545108795166 20.72128677368164 9.213921546936035 C 20.72128677368164 11.39626121520996 19.96546745300293 13.40155124664307 18.70269584655762 14.98003101348877 C 21.37469673156738 17.10320091247559 23.08919715881348 20.38836097717285 23.08919715881348 24.07540130615234 C 23.08919715881348 30.47732162475586 17.92072677612305 35.66744232177734 11.54486656188965 35.66744232177734 Z"/>
        </g>
        <line id="Line_4" data-name="Line 4" class="cls-2" y1="7.728" transform="translate(11.545 35.37)"/>
        <g id="Polygon_1" data-name="Polygon 1" class="cls-3" transform="translate(15.186 9.24)">
          <path class="cls-4" d="M 20.40546607971191 18.73534393310547 L 1.70644211769104 18.73534393310547 L 11.05595397949219 2.046068429946899 L 20.40546607971191 18.73534393310547 Z"/>
          <path class="cls-5" d="M 11.05595397949219 4.092143058776855 L 3.412885665893555 17.73534393310547 L 18.69902229309082 17.73534393310547 L 11.05595397949219 4.092143058776855 M 11.05595397949219 3.814697265625e-06 L 22.11190414428711 19.73534393310547 L 3.814697265625e-06 19.73534393310547 L 11.05595397949219 3.814697265625e-06 Z"/>
        </g>
      </g>
    </g>
  </g>
</svg>
